<svg xmlns="http://www.w3.org/2000/svg"
    version="1.1"
    viewBox="0 0 100 100"
>
<style>
    /* <![CDATA[ */
    path {
        fill : #CD6155 ;
    }
    /* ]]> */
</style>
<path
    d="M 86,10
        H 14
        C 12,10 10,12 10,14
        V 86
        C 10,88 12,90 14,90
        H 86
        C 88,90 90,88 90,86
        V 14
        C 90,12 88,10 86,10
        Z
        M 27,73
        C 27,75 26,76 24,76
        H 20
        C 18,76 17,75 17,73
        V 69
        C 17,67 18,66 20,66
        H 24
        C 26,66 27,67 27,69
        V 73
        Z
        M 27,59
        C 27,61 26,62 24,62
        H 20
        C 18,62 17,61 17,59
        V 55
        C 17,53 18,52 20,52
        H 24
        C 26,52 27,53 27,55
        V 59
        Z
        M 27,45
        C 27,47 26,48 24,48
        H 20
        C 18,48 17,47 17,45
        V 41
        C 17,39 18,38 20,38
        H 24
        C 26,38 27,39 27,41
        V 45
        Z
        M 27,31
        C 27,33 26,34 24,34
        H 20
        C 18,34 17,33 17,31
        V 27
        C 17,25 18,24 20,24
        H 24
        C 26,24 27,25 27,27
        V 31
        Z
        M 80,73
        H 32
        C 31,73 30,72 30,71
        S 31,69 32,69
        H 80
        C 81,69 82,70 82,71
        S 81,73 80,73
        Z
        M 80,59
        H 32
        C 31,59 30,58 30,57
        S 31,55 32,55
        H 80
        C 81,55 82,56 82,57
        S 81,59 80,59
        Z
        M 80,45
        H 32
        C 31,45 30,44 30,43
        S 31,41 32,41
        H 80
        C 81,41 82,42 82,43
        S 81,45 80,45
        Z
        M 80,31
        H 32
        C 31,31 30,30 30,29
        S 31,27 32,27
        H 80
        C 81,27 82,28 82,29
        S 81,31 80,31
        Z"
/>
</svg>
