<?xml version="1.0" encoding="utf-8"?>
<svg version="1.1" xmlns="http://www.w3.org/2000/svg"
    viewBox="0 0 100 100"
    width='5em' height='5em'
    preserveAspectRatio="xMinYMin" >
<path fill="white"
      d="M 72,91
         C 72,94 70,96 67,96
         H 59
         C 55,96 52,95 50,93
         C 48,95 45,96 41,96
         H 33
         C 30,96 28,94 28,91
         C 28,88 30,86 33,86
         H 41
         C 43,86 45,84 45,82
         V 55
         H 42
         C 38,55 37,52 37,50
         C 37,48 38,45 42,45
         H 45
         V 18
         C 45,16 43,14 41,14
         H 33
         C 30,14 28,12 28,9
         C 28,6 30,4 33,4
         H 41
         C 46,4 48,5 50,7
         C 52,5 54,4 59,4
         H 67
         C 70,4 72,6 72,9
         C 72,12 70,14 67,14
         H 59
         C 57,14 55,16 55,18
         V 45
         H 58
         C 62,45 63,48 63,50
         C 63,52 62,55 58,55
         H 55
         V 82
         C 55,84 57,86 59,86
         H 67
         C 70,86 72,88 72,91
         Z"
/>
<path fill="red"
      d="M 71,91
         C 71,93 69,95 67,95
         H 59
         C 56,95 52,94 50,91
         C 48,94 44,95 41,95
         H 33
         C 31,95 29,93 29,91
         C 29,89 31,87 33,87
         H 41
         C 44,87 46,85 46,82
         V 54
         H 42
         C 39,54 38,52 38,50
         C 38,48 39,46 42,46
         H 46
         V 18
         C 46,15 44,13 41,13
         H 33
         C 31,13 29,11 29,9
         C 29,7 31,5 33,5
         H 41
         C 44,5 48,6 50,9
         C 52,6 56,5 59,5
         H 67
         C 69,5 71,7 71,9
         C 71,11 69,13 67,13
         H 59
         C 56,13 54,15 54,18
         V 46
         H 58
         C 61,46 62,48 62,50
         C 62,52 61,54 58,54
         H 54
         V 82
         C 54,85 56,87 59,87
         H 67
         C 69,87 71,89 71,91
         Z"
/>
</svg>
